<?xml version="1.0" standalone="no"?>
<!DOCTYPE svg PUBLIC "-//W3C//DTD SVG 20010904//EN"
 "http://www.w3.org/TR/2001/REC-SVG-20010904/DTD/svg10.dtd">
<svg version="1.0" xmlns="http://www.w3.org/2000/svg"
 width="708.000000pt" height="708.000000pt" viewBox="0 0 708.000000 708.000000"
 preserveAspectRatio="xMidYMid meet">
<metadata>
Created by potrace 1.11, written by Peter Selinger 2001-2013
</metadata>
<g transform="translate(0.000000,708.000000) scale(0.100000,-0.100000)"
fill="#000000" stroke="none">
<path d="M4299 5609 c-170 -18 -222 -117 -169 -324 11 -43 18 -81 15 -83 -5
-6 -1706 -4 -1970 1 -105 2 -148 7 -170 19 -49 26 -101 85 -140 160 -65 122
-129 169 -213 152 -71 -14 -161 -131 -176 -227 -8 -52 16 -163 52 -233 40 -78
92 -137 158 -179 111 -71 187 -92 409 -111 99 -8 99 -8 105 -14 10 -10 -44
-132 -71 -162 -27 -28 -33 -30 -82 -25 -28 3 -84 13 -124 21 -114 25 -217 34
-368 30 -413 -9 -793 -171 -1086 -464 -262 -262 -413 -570 -458 -935 -16 -128
-5 -371 23 -500 15 -70 38 -158 45 -178 15 -36 24 -61 26 -73 6 -24 86 -188
121 -247 134 -222 357 -444 569 -565 133 -75 319 -148 455 -177 41 -9 82 -18
90 -20 87 -18 307 -25 424 -12 291 31 573 153 815 350 40 33 526 513 1080
1067 912 912 1115 1111 1125 1099 14 -18 108 -202 300 -585 237 -473 263 -514
338 -540 48 -16 98 -8 138 24 43 35 75 123 84 232 6 70 5 78 -23 130 -17 30
-132 257 -256 504 -168 335 -222 452 -213 458 7 4 28 8 46 8 17 0 33 1 35 1 1
1 43 7 92 14 366 49 725 -75 996 -345 106 -105 181 -210 235 -327 20 -43 39
-85 44 -93 13 -28 42 -133 55 -210 18 -94 13 -339 -8 -430 -36 -162 -110 -330
-202 -460 -55 -78 -164 -193 -225 -239 -19 -14 -37 -29 -40 -32 -13 -16 -132
-86 -204 -120 -227 -105 -471 -133 -736 -84 -64 11 -212 65 -293 106 -212 107
-394 290 -522 524 -82 150 -146 202 -233 191 -69 -9 -131 -47 -171 -104 -21
-30 -23 -41 -18 -97 3 -35 10 -72 16 -82 5 -10 28 -55 51 -101 170 -340 471
-612 834 -756 87 -34 273 -82 351 -91 33 -4 71 -8 85 -11 32 -6 267 -5 300 0
14 3 48 7 75 11 28 3 70 11 95 16 25 6 56 13 69 15 52 10 199 63 281 101 384
179 698 535 834 948 187 566 43 1188 -374 1606 -256 257 -572 410 -955 464
-95 14 -339 13 -436 -2 -202 -30 -280 -25 -309 20 -48 76 -274 529 -275 552 0
6 73 10 200 10 185 0 203 2 245 22 78 37 160 129 160 180 0 36 -34 95 -78 135
-58 52 -73 58 -170 67 -103 10 -608 9 -703 0z m69 -844 c60 -33 85 -70 127
-191 19 -55 40 -109 46 -120 16 -31 3 -76 -41 -142 -56 -83 -2141 -2161 -2248
-2240 -100 -74 -217 -134 -326 -167 -112 -33 -125 -36 -256 -42 -147 -6 -251
7 -405 51 -443 128 -728 437 -831 901 -21 94 -29 322 -15 411 14 95 55 234 92
313 30 65 119 206 158 251 163 187 360 319 580 390 100 31 226 52 325 53 85 0
202 -10 216 -18 4 -2 20 -6 36 -9 16 -3 46 -11 66 -18 l36 -13 -150 -300 c-82
-165 -173 -343 -201 -395 -139 -257 -156 -309 -145 -457 1 -7 15 -41 32 -75
26 -51 39 -66 75 -84 73 -36 149 -13 209 64 16 20 108 195 205 387 321 640
358 715 362 715 2 0 20 -24 41 -52 21 -29 41 -55 44 -58 9 -7 238 -319 283
-385 67 -98 147 -131 235 -96 129 51 174 154 119 274 -28 61 -149 228 -372
512 -82 104 -148 194 -148 199 0 6 7 27 16 46 9 19 23 53 32 75 25 64 93 158
137 189 74 53 66 53 871 55 l748 2 47 -26z"/>
</g>
</svg>
